<mxfile host="app.diagrams.net" modified="2021-08-19T04:47:54.218Z" agent="5.0 (Windows NT 10.0; Win64; x64) AppleWebKit/537.36 (KHTML, like Gecko) Chrome/84.0.4147.89 Safari/537.36" etag="oFOO08f8gia1x8BPznZp" version="14.9.7" type="github">
  <diagram id="RiJ_Mqsd9XuKf032Pi_q" name="Page-1">
    <mxGraphModel dx="1422" dy="762" grid="1" gridSize="10" guides="1" tooltips="1" connect="1" arrows="1" fold="1" page="1" pageScale="1" pageWidth="850" pageHeight="1100" math="0" shadow="0">
      <root>
        <mxCell id="0" />
        <mxCell id="1" parent="0" />
        <mxCell id="DmBUnlMlziyalYtl0B1D-10" style="rounded=0;orthogonalLoop=1;jettySize=auto;html=1;exitX=1;exitY=0.3333333333333333;exitDx=0;exitDy=0;exitPerimeter=0;entryX=0;entryY=0.5;entryDx=0;entryDy=0;" parent="1" source="DmBUnlMlziyalYtl0B1D-2" target="DmBUnlMlziyalYtl0B1D-9" edge="1">
          <mxGeometry relative="1" as="geometry" />
        </mxCell>
        <mxCell id="DmBUnlMlziyalYtl0B1D-15" style="edgeStyle=none;rounded=0;orthogonalLoop=1;jettySize=auto;html=1;exitX=1;exitY=0.3333333333333333;exitDx=0;exitDy=0;exitPerimeter=0;entryX=0;entryY=0.5;entryDx=0;entryDy=0;" parent="1" source="DmBUnlMlziyalYtl0B1D-2" target="DmBUnlMlziyalYtl0B1D-14" edge="1">
          <mxGeometry relative="1" as="geometry" />
        </mxCell>
        <mxCell id="DmBUnlMlziyalYtl0B1D-2" value="พนักงาน&lt;br&gt;HR" style="shape=umlActor;verticalLabelPosition=bottom;verticalAlign=top;html=1;outlineConnect=0;" parent="1" vertex="1">
          <mxGeometry x="110" y="230" width="30" height="60" as="geometry" />
        </mxCell>
        <mxCell id="DmBUnlMlziyalYtl0B1D-17" style="edgeStyle=none;rounded=0;orthogonalLoop=1;jettySize=auto;html=1;exitX=0;exitY=0.3333333333333333;exitDx=0;exitDy=0;exitPerimeter=0;entryX=1;entryY=0;entryDx=0;entryDy=0;" parent="1" source="DmBUnlMlziyalYtl0B1D-3" target="DmBUnlMlziyalYtl0B1D-16" edge="1">
          <mxGeometry relative="1" as="geometry" />
        </mxCell>
        <mxCell id="DmBUnlMlziyalYtl0B1D-3" value="เจ้าหน้าที่คัดกรอง" style="shape=umlActor;verticalLabelPosition=bottom;verticalAlign=top;html=1;outlineConnect=0;" parent="1" vertex="1">
          <mxGeometry x="690" y="160" width="30" height="60" as="geometry" />
        </mxCell>
        <mxCell id="DmBUnlMlziyalYtl0B1D-8" value="แจ้งเคส Covid19" style="swimlane;" parent="1" vertex="1">
          <mxGeometry x="240" y="40" width="400" height="400" as="geometry" />
        </mxCell>
        <mxCell id="DmBUnlMlziyalYtl0B1D-9" value="บันทึกเคสข้อมูล&lt;br&gt;ผู้ป่วย" style="ellipse;whiteSpace=wrap;html=1;" parent="DmBUnlMlziyalYtl0B1D-8" vertex="1">
          <mxGeometry x="60" y="80" width="120" height="60" as="geometry" />
        </mxCell>
        <mxCell id="DmBUnlMlziyalYtl0B1D-12" value="extend" style="edgeStyle=none;rounded=0;orthogonalLoop=1;jettySize=auto;html=1;exitX=0.5;exitY=0;exitDx=0;exitDy=0;entryX=0.5;entryY=1;entryDx=0;entryDy=0;dashed=1;" parent="DmBUnlMlziyalYtl0B1D-8" source="DmBUnlMlziyalYtl0B1D-11" target="DmBUnlMlziyalYtl0B1D-9" edge="1">
          <mxGeometry relative="1" as="geometry" />
        </mxCell>
        <mxCell id="DmBUnlMlziyalYtl0B1D-11" value="บันทึกข้อมูล&lt;br&gt;ผู้ติดต่อ&lt;br&gt;(ญาติ)" style="ellipse;whiteSpace=wrap;html=1;" parent="DmBUnlMlziyalYtl0B1D-8" vertex="1">
          <mxGeometry x="60" y="180" width="120" height="60" as="geometry" />
        </mxCell>
        <mxCell id="DmBUnlMlziyalYtl0B1D-14" value="ดูรายการ&lt;br&gt;เคสและข้อมูล&lt;br&gt;สถานะ" style="ellipse;whiteSpace=wrap;html=1;" parent="DmBUnlMlziyalYtl0B1D-8" vertex="1">
          <mxGeometry x="60" y="270" width="120" height="60" as="geometry" />
        </mxCell>
        <mxCell id="DmBUnlMlziyalYtl0B1D-18" value="&amp;lt;include&amp;gt;" style="edgeStyle=none;rounded=0;orthogonalLoop=1;jettySize=auto;html=1;exitX=0;exitY=1;exitDx=0;exitDy=0;entryX=1;entryY=0.5;entryDx=0;entryDy=0;dashed=1;" parent="DmBUnlMlziyalYtl0B1D-8" source="DmBUnlMlziyalYtl0B1D-16" target="DmBUnlMlziyalYtl0B1D-14" edge="1">
          <mxGeometry relative="1" as="geometry" />
        </mxCell>
        <mxCell id="DmBUnlMlziyalYtl0B1D-16" value="ปรับสถานะ&lt;br&gt;เคสผู้ป่วย&lt;br&gt;ดำเนินการ" style="ellipse;whiteSpace=wrap;html=1;" parent="DmBUnlMlziyalYtl0B1D-8" vertex="1">
          <mxGeometry x="260" y="180" width="120" height="60" as="geometry" />
        </mxCell>
        <mxCell id="DmBUnlMlziyalYtl0B1D-13" value="&lt;b&gt;Brief Requirement&lt;/b&gt;&lt;br&gt;สร้าง Application สำหรับพนักงาน HR ของบริษัท KKP&lt;br&gt;สามารถบันทึกข้อมูลพนักงานที่ป่วยเป็นโควิท 19 และผู้ติดต่อ (ญาติ)&lt;br&gt;&lt;br&gt;จากนั้นเจ้าหน้าที่ รพ. ที่รับประสานงานจากหน่วยงาน&lt;br&gt;ที่เกี่ยวข้องจะเข้ามาดูเคส โดยแบ่งกลุ่ม แดง เหลือง เขียว&lt;br&gt;&lt;br&gt;เจ้าหน้าที่คัดกรองจาก รพ. สามารถปรับสถานะของใบงานเป็นดำเนินการ&lt;br&gt;เพื่ออัพเดทในระบบว่ามี พนักงานรายได้บ้างที่ได้รับการประสานงาน นำส่งเพื่อรักษาตัวแล้ว&lt;br&gt;&lt;br&gt;พนักงาน HR ของ KKP สามารถดูรายการได้ว่าผู้ป่วยแต่ละเคส แดง เหลือง เขียว&lt;br&gt;คนไหนจะอยู่ในลำดับที่เท่าไหร่ในการประสานงาน" style="text;html=1;align=left;verticalAlign=middle;resizable=0;points=[];autosize=1;strokeColor=none;" parent="1" vertex="1">
          <mxGeometry x="260" y="465" width="440" height="170" as="geometry" />
        </mxCell>
        <mxCell id="DmBUnlMlziyalYtl0B1D-19" value="&lt;b&gt;ข้อมูลเพิ่มเติม&lt;/b&gt;&lt;br&gt;สถานะของแต่ละเคสไม่เหมือนกัน&lt;br&gt;เคสสีแดง =&amp;gt; [รอประสานการช่วยเหลือ | เจ้าหน้าที่ประสานงานให้ความช่วยเหลือแล้ว]&lt;br&gt;เคสสีเหลือง = [รอประสานการช่วยเหลือ | ตรวจสอบอาการเบื้องต้นและจ่ายรับยาแล้ว]&lt;br&gt;เคสสีเขียว = [รอประสานการช่วยเหลือ | เจ้าหน้าที่จ่ายยาเบื้องต้นแล้ว | เจ้าหน้าที่ติดต่อสอบถามอาการแล้ว]&lt;br&gt;&lt;br&gt;พนักงาน HR สามารก ยกเลิกเคสได้ทุกเวลา (กรณีบันทึกงานผิดพลาด)" style="text;html=1;align=left;verticalAlign=middle;resizable=0;points=[];autosize=1;strokeColor=none;" parent="1" vertex="1">
          <mxGeometry x="210" y="680" width="530" height="100" as="geometry" />
        </mxCell>
        <mxCell id="DmBUnlMlziyalYtl0B1D-20" value="" style="rounded=0;whiteSpace=wrap;html=1;align=left;" parent="1" vertex="1">
          <mxGeometry x="200" y="840" width="500" height="240" as="geometry" />
        </mxCell>
        <mxCell id="DmBUnlMlziyalYtl0B1D-21" value="&lt;div style=&quot;&quot;&gt;&lt;span&gt;บันทึกเคส&lt;/span&gt;&lt;/div&gt;&lt;div style=&quot;&quot;&gt;&lt;span&gt;เจ้าพนักงานป่วย&lt;/span&gt;&lt;/div&gt;&lt;div style=&quot;&quot;&gt;&lt;span&gt;โควิท19&lt;/span&gt;&lt;/div&gt;" style="rounded=0;whiteSpace=wrap;html=1;align=center;" parent="1" vertex="1">
          <mxGeometry x="240" y="880" width="120" height="90" as="geometry" />
        </mxCell>
        <mxCell id="DmBUnlMlziyalYtl0B1D-22" value="&lt;div&gt;ดูรายการ&lt;/div&gt;&lt;div&gt;เคสพนักงานป่วย&lt;/div&gt;&lt;div&gt;โควิท19&lt;/div&gt;" style="rounded=0;whiteSpace=wrap;html=1;align=center;" parent="1" vertex="1">
          <mxGeometry x="390" y="880" width="120" height="90" as="geometry" />
        </mxCell>
        <mxCell id="DmBUnlMlziyalYtl0B1D-23" value="&lt;div&gt;ดูรายการ&lt;/div&gt;&lt;div&gt;เคสพนักงานป่วย&lt;/div&gt;&lt;div&gt;โควิท19&lt;/div&gt;&lt;div&gt;(ยกเลิก)&lt;/div&gt;" style="rounded=0;whiteSpace=wrap;html=1;align=center;" parent="1" vertex="1">
          <mxGeometry x="540" y="880" width="120" height="90" as="geometry" />
        </mxCell>
        <mxCell id="DmBUnlMlziyalYtl0B1D-24" value="" style="rounded=0;whiteSpace=wrap;html=1;align=left;" parent="1" vertex="1">
          <mxGeometry x="200" y="815" width="500" height="25" as="geometry" />
        </mxCell>
        <mxCell id="DmBUnlMlziyalYtl0B1D-25" value="พนักงาน&lt;br&gt;HR" style="shape=umlActor;verticalLabelPosition=bottom;verticalAlign=top;html=1;outlineConnect=0;" parent="1" vertex="1">
          <mxGeometry x="60" y="880" width="30" height="60" as="geometry" />
        </mxCell>
        <mxCell id="DmBUnlMlziyalYtl0B1D-26" value="" style="shape=flexArrow;endArrow=classic;html=1;fillColor=#f5f5f5;strokeColor=#666666;" parent="1" edge="1">
          <mxGeometry width="50" height="50" relative="1" as="geometry">
            <mxPoint x="120" y="909.5" as="sourcePoint" />
            <mxPoint x="180" y="909.5" as="targetPoint" />
          </mxGeometry>
        </mxCell>
        <mxCell id="DmBUnlMlziyalYtl0B1D-27" value="" style="rounded=0;whiteSpace=wrap;html=1;align=center;" parent="1" vertex="1">
          <mxGeometry x="200" y="1150" width="450" height="590" as="geometry" />
        </mxCell>
        <mxCell id="DmBUnlMlziyalYtl0B1D-28" value="" style="shape=flexArrow;endArrow=classic;html=1;fillColor=#f5f5f5;strokeColor=#666666;" parent="1" edge="1">
          <mxGeometry width="50" height="50" relative="1" as="geometry">
            <mxPoint x="299.5" y="1000" as="sourcePoint" />
            <mxPoint x="299.5" y="1120.5" as="targetPoint" />
          </mxGeometry>
        </mxCell>
        <mxCell id="DmBUnlMlziyalYtl0B1D-29" value="ข้อมูลพนักงาน" style="text;html=1;align=center;verticalAlign=middle;resizable=0;points=[];autosize=1;strokeColor=none;fontStyle=1" parent="1" vertex="1">
          <mxGeometry x="210" y="1160" width="90" height="20" as="geometry" />
        </mxCell>
        <mxCell id="DmBUnlMlziyalYtl0B1D-30" value="ชื่อ" style="text;html=1;align=center;verticalAlign=middle;resizable=0;points=[];autosize=1;strokeColor=none;" parent="1" vertex="1">
          <mxGeometry x="210" y="1190" width="30" height="20" as="geometry" />
        </mxCell>
        <mxCell id="DmBUnlMlziyalYtl0B1D-31" value="" style="rounded=0;whiteSpace=wrap;html=1;align=center;" parent="1" vertex="1">
          <mxGeometry x="250" y="1190" width="90" height="20" as="geometry" />
        </mxCell>
        <mxCell id="DmBUnlMlziyalYtl0B1D-32" value="นามสกุล" style="text;html=1;align=center;verticalAlign=middle;resizable=0;points=[];autosize=1;strokeColor=none;" parent="1" vertex="1">
          <mxGeometry x="350" y="1190" width="60" height="20" as="geometry" />
        </mxCell>
        <mxCell id="DmBUnlMlziyalYtl0B1D-33" value="" style="rounded=0;whiteSpace=wrap;html=1;align=center;" parent="1" vertex="1">
          <mxGeometry x="415" y="1190" width="95" height="20" as="geometry" />
        </mxCell>
        <mxCell id="DmBUnlMlziyalYtl0B1D-34" value="รหัสพนักงาน" style="text;html=1;align=center;verticalAlign=middle;resizable=0;points=[];autosize=1;strokeColor=none;" parent="1" vertex="1">
          <mxGeometry x="210" y="1220" width="80" height="20" as="geometry" />
        </mxCell>
        <mxCell id="DmBUnlMlziyalYtl0B1D-35" value="" style="rounded=0;whiteSpace=wrap;html=1;align=center;" parent="1" vertex="1">
          <mxGeometry x="290" y="1220" width="90" height="20" as="geometry" />
        </mxCell>
        <mxCell id="DmBUnlMlziyalYtl0B1D-36" value="ระดับอาการป่วย" style="text;html=1;align=center;verticalAlign=middle;resizable=0;points=[];autosize=1;strokeColor=none;fontStyle=1" parent="1" vertex="1">
          <mxGeometry x="205" y="1280" width="100" height="20" as="geometry" />
        </mxCell>
        <mxCell id="DmBUnlMlziyalYtl0B1D-37" value="" style="ellipse;whiteSpace=wrap;html=1;aspect=fixed;align=center;" parent="1" vertex="1">
          <mxGeometry x="220" y="1310" width="10" height="10" as="geometry" />
        </mxCell>
        <mxCell id="DmBUnlMlziyalYtl0B1D-38" value="" style="ellipse;whiteSpace=wrap;html=1;aspect=fixed;align=center;" parent="1" vertex="1">
          <mxGeometry x="220" y="1340" width="10" height="10" as="geometry" />
        </mxCell>
        <mxCell id="DmBUnlMlziyalYtl0B1D-39" value="" style="ellipse;whiteSpace=wrap;html=1;aspect=fixed;align=center;" parent="1" vertex="1">
          <mxGeometry x="220" y="1370" width="10" height="10" as="geometry" />
        </mxCell>
        <mxCell id="DmBUnlMlziyalYtl0B1D-40" value="เบา : เริ่มไม่ได้กลิ่น มีอาการเจ็บคอเล็กน้อย มีไข้อ่อนๆ" style="text;html=1;align=center;verticalAlign=middle;resizable=0;points=[];autosize=1;strokeColor=none;" parent="1" vertex="1">
          <mxGeometry x="240" y="1305" width="270" height="20" as="geometry" />
        </mxCell>
        <mxCell id="DmBUnlMlziyalYtl0B1D-41" value="กลาง : มีไข้สูงกว่า 37.5 องศา, เริ่มหายใจติดขัด, มีภาวะอ่อนเพลีย" style="text;html=1;align=center;verticalAlign=middle;resizable=0;points=[];autosize=1;strokeColor=none;" parent="1" vertex="1">
          <mxGeometry x="240" y="1335" width="330" height="20" as="geometry" />
        </mxCell>
        <mxCell id="DmBUnlMlziyalYtl0B1D-42" value="หนัก : พูดและหายใจติดขัด, การตอบสนองแย่, ไม่สามารถช่วยเหลือตัวเองได้" style="text;html=1;align=center;verticalAlign=middle;resizable=0;points=[];autosize=1;strokeColor=none;" parent="1" vertex="1">
          <mxGeometry x="240" y="1365" width="380" height="20" as="geometry" />
        </mxCell>
        <mxCell id="DmBUnlMlziyalYtl0B1D-43" value="" style="rounded=0;whiteSpace=wrap;html=1;align=center;" parent="1" vertex="1">
          <mxGeometry x="450" y="1220" width="60" height="20" as="geometry" />
        </mxCell>
        <mxCell id="DmBUnlMlziyalYtl0B1D-44" value="อายุ" style="text;html=1;align=center;verticalAlign=middle;resizable=0;points=[];autosize=1;strokeColor=none;" parent="1" vertex="1">
          <mxGeometry x="410" y="1220" width="40" height="20" as="geometry" />
        </mxCell>
        <mxCell id="DmBUnlMlziyalYtl0B1D-45" value="ปี" style="text;html=1;align=center;verticalAlign=middle;resizable=0;points=[];autosize=1;strokeColor=none;" parent="1" vertex="1">
          <mxGeometry x="520" y="1220" width="20" height="20" as="geometry" />
        </mxCell>
        <mxCell id="DmBUnlMlziyalYtl0B1D-46" value="ข้อมูลผู้ติดต่อ" style="text;html=1;align=center;verticalAlign=middle;resizable=0;points=[];autosize=1;strokeColor=none;fontStyle=1" parent="1" vertex="1">
          <mxGeometry x="200" y="1530" width="90" height="20" as="geometry" />
        </mxCell>
        <mxCell id="DmBUnlMlziyalYtl0B1D-47" value="เพิ่ม" style="rounded=1;whiteSpace=wrap;html=1;align=center;fillColor=#f5f5f5;strokeColor=#666666;fontColor=#333333;" parent="1" vertex="1">
          <mxGeometry x="210" y="1550" width="40" height="20" as="geometry" />
        </mxCell>
        <mxCell id="DmBUnlMlziyalYtl0B1D-48" value="ชื่อ" style="rounded=0;whiteSpace=wrap;html=1;align=center;" parent="1" vertex="1">
          <mxGeometry x="210" y="1580" width="160" height="20" as="geometry" />
        </mxCell>
        <mxCell id="DmBUnlMlziyalYtl0B1D-49" value="" style="rounded=0;whiteSpace=wrap;html=1;align=center;" parent="1" vertex="1">
          <mxGeometry x="210" y="1600" width="430" height="90" as="geometry" />
        </mxCell>
        <mxCell id="DmBUnlMlziyalYtl0B1D-50" value="รายงานเคสผู้ป่วย" style="rounded=1;whiteSpace=wrap;html=1;align=center;fillColor=#f5f5f5;strokeColor=#666666;fontColor=#333333;" parent="1" vertex="1">
          <mxGeometry x="375" y="1700" width="110" height="30" as="geometry" />
        </mxCell>
        <mxCell id="DmBUnlMlziyalYtl0B1D-52" value="ความสัมพันธ์" style="rounded=0;whiteSpace=wrap;html=1;align=center;" parent="1" vertex="1">
          <mxGeometry x="370" y="1580" width="120" height="20" as="geometry" />
        </mxCell>
        <mxCell id="DmBUnlMlziyalYtl0B1D-53" value="เบอร์โทรติดต่อ" style="rounded=0;whiteSpace=wrap;html=1;align=center;" parent="1" vertex="1">
          <mxGeometry x="490" y="1580" width="150" height="20" as="geometry" />
        </mxCell>
        <mxCell id="DmBUnlMlziyalYtl0B1D-54" value="เบอร์โทรศัพท์" style="text;html=1;align=center;verticalAlign=middle;resizable=0;points=[];autosize=1;strokeColor=none;" parent="1" vertex="1">
          <mxGeometry x="210" y="1250" width="80" height="20" as="geometry" />
        </mxCell>
        <mxCell id="DmBUnlMlziyalYtl0B1D-55" value="" style="rounded=0;whiteSpace=wrap;html=1;align=center;" parent="1" vertex="1">
          <mxGeometry x="290" y="1250" width="90" height="20" as="geometry" />
        </mxCell>
        <mxCell id="DmBUnlMlziyalYtl0B1D-56" value="ที่อยู่ผู้ป่วย" style="text;html=1;align=center;verticalAlign=middle;resizable=0;points=[];autosize=1;strokeColor=none;fontStyle=1" parent="1" vertex="1">
          <mxGeometry x="205" y="1400" width="70" height="20" as="geometry" />
        </mxCell>
        <mxCell id="DmBUnlMlziyalYtl0B1D-58" value="" style="rounded=0;whiteSpace=wrap;html=1;align=center;" parent="1" vertex="1">
          <mxGeometry x="270" y="1420" width="90" height="20" as="geometry" />
        </mxCell>
        <mxCell id="DmBUnlMlziyalYtl0B1D-59" value="บ้านเลขที่" style="text;html=1;align=left;verticalAlign=middle;resizable=0;points=[];autosize=1;strokeColor=none;" parent="1" vertex="1">
          <mxGeometry x="210" y="1420" width="60" height="20" as="geometry" />
        </mxCell>
        <mxCell id="DmBUnlMlziyalYtl0B1D-60" value="ถนน" style="text;html=1;align=left;verticalAlign=middle;resizable=0;points=[];autosize=1;strokeColor=none;" parent="1" vertex="1">
          <mxGeometry x="370" y="1420" width="40" height="20" as="geometry" />
        </mxCell>
        <mxCell id="DmBUnlMlziyalYtl0B1D-61" value="" style="rounded=0;whiteSpace=wrap;html=1;align=center;" parent="1" vertex="1">
          <mxGeometry x="410" y="1420" width="120" height="20" as="geometry" />
        </mxCell>
        <mxCell id="DmBUnlMlziyalYtl0B1D-62" value="" style="rounded=0;whiteSpace=wrap;html=1;align=center;" parent="1" vertex="1">
          <mxGeometry x="270" y="1450" width="90" height="20" as="geometry" />
        </mxCell>
        <mxCell id="DmBUnlMlziyalYtl0B1D-63" value="แขวง/เขต" style="text;html=1;align=left;verticalAlign=middle;resizable=0;points=[];autosize=1;strokeColor=none;" parent="1" vertex="1">
          <mxGeometry x="210" y="1450" width="60" height="20" as="geometry" />
        </mxCell>
        <mxCell id="DmBUnlMlziyalYtl0B1D-64" value="" style="rounded=0;whiteSpace=wrap;html=1;align=center;" parent="1" vertex="1">
          <mxGeometry x="410" y="1450" width="75" height="20" as="geometry" />
        </mxCell>
        <mxCell id="DmBUnlMlziyalYtl0B1D-65" value="ตำบล" style="text;html=1;align=left;verticalAlign=middle;resizable=0;points=[];autosize=1;strokeColor=none;" parent="1" vertex="1">
          <mxGeometry x="370" y="1450" width="40" height="20" as="geometry" />
        </mxCell>
        <mxCell id="DmBUnlMlziyalYtl0B1D-67" value="" style="rounded=0;whiteSpace=wrap;html=1;align=center;" parent="1" vertex="1">
          <mxGeometry x="540" y="1450" width="90" height="20" as="geometry" />
        </mxCell>
        <mxCell id="DmBUnlMlziyalYtl0B1D-68" value="อำเภอ" style="text;html=1;align=center;verticalAlign=middle;resizable=0;points=[];autosize=1;strokeColor=none;" parent="1" vertex="1">
          <mxGeometry x="490" y="1450" width="50" height="20" as="geometry" />
        </mxCell>
        <mxCell id="DmBUnlMlziyalYtl0B1D-69" value="" style="rounded=0;whiteSpace=wrap;html=1;align=center;" parent="1" vertex="1">
          <mxGeometry x="270" y="1480" width="90" height="20" as="geometry" />
        </mxCell>
        <mxCell id="DmBUnlMlziyalYtl0B1D-70" value="จังหวัด" style="text;html=1;align=left;verticalAlign=middle;resizable=0;points=[];autosize=1;strokeColor=none;" parent="1" vertex="1">
          <mxGeometry x="210" y="1480" width="50" height="20" as="geometry" />
        </mxCell>
        <mxCell id="DmBUnlMlziyalYtl0B1D-71" value="" style="rounded=0;whiteSpace=wrap;html=1;align=center;" parent="1" vertex="1">
          <mxGeometry x="450" y="1480" width="75" height="20" as="geometry" />
        </mxCell>
        <mxCell id="DmBUnlMlziyalYtl0B1D-72" value="รหัสไปรษณีย์" style="text;html=1;align=left;verticalAlign=middle;resizable=0;points=[];autosize=1;strokeColor=none;" parent="1" vertex="1">
          <mxGeometry x="370" y="1480" width="80" height="20" as="geometry" />
        </mxCell>
        <mxCell id="DmBUnlMlziyalYtl0B1D-73" value="" style="triangle;whiteSpace=wrap;html=1;align=left;rotation=90;" parent="1" vertex="1">
          <mxGeometry x="342.5" y="1485" width="7.5" height="10" as="geometry" />
        </mxCell>
        <mxCell id="DmBUnlMlziyalYtl0B1D-75" value="" style="rounded=0;whiteSpace=wrap;html=1;align=center;" parent="1" vertex="1">
          <mxGeometry x="760" y="1150" width="600" height="370" as="geometry" />
        </mxCell>
        <mxCell id="DmBUnlMlziyalYtl0B1D-76" value="ชื่อพนักงาน" style="rounded=0;whiteSpace=wrap;html=1;align=center;" parent="1" vertex="1">
          <mxGeometry x="770" y="1230" width="150" height="20" as="geometry" />
        </mxCell>
        <mxCell id="DmBUnlMlziyalYtl0B1D-77" value="" style="rounded=0;whiteSpace=wrap;html=1;align=center;" parent="1" vertex="1">
          <mxGeometry x="770" y="1250" width="580" height="250" as="geometry" />
        </mxCell>
        <mxCell id="DmBUnlMlziyalYtl0B1D-79" value="ระดับอาการป่วย" style="rounded=0;whiteSpace=wrap;html=1;align=center;" parent="1" vertex="1">
          <mxGeometry x="920" y="1230" width="110" height="20" as="geometry" />
        </mxCell>
        <mxCell id="DmBUnlMlziyalYtl0B1D-80" value="รายการเคสพนักงานป่วยโรคโควิท19" style="text;html=1;align=center;verticalAlign=middle;resizable=0;points=[];autosize=1;strokeColor=none;fontStyle=1" parent="1" vertex="1">
          <mxGeometry x="770" y="1160" width="210" height="20" as="geometry" />
        </mxCell>
        <mxCell id="DmBUnlMlziyalYtl0B1D-83" value="วันที่แจ้ง" style="rounded=0;whiteSpace=wrap;html=1;align=center;" parent="1" vertex="1">
          <mxGeometry x="1030" y="1230" width="130" height="20" as="geometry" />
        </mxCell>
        <mxCell id="DmBUnlMlziyalYtl0B1D-84" value="แก้ไขข้อมูลเคส" style="rounded=1;whiteSpace=wrap;html=1;align=center;fillColor=#f5f5f5;strokeColor=#666666;fontColor=#333333;" parent="1" vertex="1">
          <mxGeometry x="770" y="1190" width="110" height="30" as="geometry" />
        </mxCell>
        <mxCell id="DmBUnlMlziyalYtl0B1D-86" value="ลบเคสผู้ป่วย" style="rounded=1;whiteSpace=wrap;html=1;align=center;fillColor=#f5f5f5;strokeColor=#666666;fontColor=#333333;" parent="1" vertex="1">
          <mxGeometry x="890" y="1190" width="110" height="30" as="geometry" />
        </mxCell>
        <mxCell id="sDAs4L4iIC885u4bJBAC-1" value="สถานะการประสานงาน" style="rounded=0;whiteSpace=wrap;html=1;align=center;" vertex="1" parent="1">
          <mxGeometry x="1160" y="1230" width="190" height="20" as="geometry" />
        </mxCell>
      </root>
    </mxGraphModel>
  </diagram>
</mxfile>
